<?xml version="1.0" encoding="UTF-8" standalone="no"?>
<!DOCTYPE svg PUBLIC "-//W3C//DTD SVG 1.1//EN" "http://www.w3.org/Graphics/SVG/1.1/DTD/svg11.dtd">
<svg width="100%" height="100%" viewBox="0 0 1024 1024" version="1.1" xmlns="http://www.w3.org/2000/svg" xmlns:xlink="http://www.w3.org/1999/xlink" xml:space="preserve" xmlns:serif="http://www.serif.com/" style="fill-rule:evenodd;clip-rule:evenodd;stroke-linejoin:round;stroke-miterlimit:2;">
    <g transform="matrix(1.88889,5.71955e-32,0,1.88501,-455.111,-453.125)">
        <g>
            <g transform="matrix(1.39011,-5.47382e-48,0,1.39011,-151.597,-329.99)">
                <path d="M453.384,770.863C431.538,780.306 407.455,785.54 382.159,785.54L382.159,712.842C387.737,712.842 393.216,712.415 398.565,711.592C406.937,710.303 414.99,708.044 422.607,704.933C446.26,695.271 465.699,677.394 477.369,654.855C484.908,640.295 489.205,623.788 489.3,606.295C489.301,606.097 489.302,605.898 489.302,605.699C489.302,605.5 489.301,605.301 489.3,605.103C489.551,569.4 512.316,539.006 544.093,527.425C555.565,551.094 562,577.651 562,605.699C562,633.747 555.565,660.304 544.093,683.972C540.568,691.245 536.567,698.246 532.131,704.933C517.906,726.376 499.206,744.599 477.369,758.264C469.738,763.039 461.724,767.258 453.384,770.863Z" style="fill:white;"/>
            </g>
            <g transform="matrix(1.39011,-5.47382e-48,0,1.39011,-151.597,-329.99)">
                <path d="M382.159,498.555L382.159,425.857C407.455,425.857 431.538,431.091 453.384,440.535C431.413,456.426 412.732,476.591 398.565,499.806C393.216,498.983 387.737,498.555 382.159,498.555Z" style="fill:white;"/>
            </g>
        </g>
    </g>
</svg>
