<?xml version="1.0" encoding="UTF-8" standalone="no"?>
<!DOCTYPE svg PUBLIC "-//W3C//DTD SVG 1.1//EN" "http://www.w3.org/Graphics/SVG/1.1/DTD/svg11.dtd">
<svg width="100%" height="100%" viewBox="0 0 1024 1024" version="1.1" xmlns="http://www.w3.org/2000/svg" xmlns:xlink="http://www.w3.org/1999/xlink" xml:space="preserve" xmlns:serif="http://www.serif.com/" style="fill-rule:evenodd;clip-rule:evenodd;stroke-linejoin:round;stroke-miterlimit:2;">
    <g transform="matrix(1.88889,5.71955e-32,0,1.88501,-455.111,-453.125)">
        <g>
            <g transform="matrix(1.39011,-1.09476e-47,0,1.39011,113.109,-329.99)">
                <path d="M220.224,527.425C223.749,520.152 227.75,513.152 232.186,506.465C246.411,485.022 265.111,466.799 286.948,453.134C294.579,448.359 302.593,444.14 310.933,440.535C332.779,431.091 356.862,425.857 382.159,425.857L382.159,498.555C376.58,498.555 371.101,498.983 365.752,499.806C357.381,501.095 349.327,503.354 341.711,506.465C318.057,516.127 298.618,534.004 286.948,556.542C279.409,571.103 275.112,587.609 275.017,605.103C275.016,605.301 275.015,605.5 275.015,605.699C275.015,605.898 275.016,606.097 275.017,606.295C274.766,641.998 252.001,672.391 220.224,683.972C208.752,660.304 202.317,633.747 202.317,605.699C202.317,577.651 208.752,551.094 220.224,527.425Z" style="fill:white;"/>
            </g>
            <g transform="matrix(1.39011,-5.47382e-48,0,1.39011,113.109,-329.99)">
                <path d="M382.159,712.842L382.159,785.54C356.862,785.54 332.779,780.306 310.933,770.863C332.905,754.972 351.586,734.807 365.752,711.592C371.101,712.415 376.58,712.842 382.159,712.842Z" style="fill:white;"/>
            </g>
        </g>
    </g>
</svg>
